<svg width="150px" height="36px" viewBox="0 0 150 36" version="1.1" xmlns="http://www.w3.org/2000/svg" xmlns:xlink="http://www.w3.org/1999/xlink">
							<g id="Symbols" stroke="none" stroke-width="1" fill="none" fill-rule="evenodd">
								<g id="Footer" transform="translate(-1112.000000, -32.000000)" fill-rule="nonzero">
									<g id="Simpl_logo" transform="translate(1112.000000, 32.000000)">
										<path d="M9.33737407,27.4722639 C2.03376161,24.8455772 -1.78768844,16.7676162 0.81946907,9.40929535 C2.23019128,5.39730135 5.35520884,2.23088456 9.33737407,0.809595202 C5.08735019,3.02248876 2.10519058,8.16791604 2.10519058,14.1409295 C2.10519058,20.113943 5.08735019,25.2593703 9.33737407,27.4722639 Z M18.730284,0.809595202 C22.9803079,3.02248876 25.9624675,8.14992504 25.9624675,14.1409295 C25.9624675,20.131934 22.9803079,25.2593703 18.730284,27.4722639 C26.0338965,24.8635682 29.8553465,16.7676162 27.248189,9.40929535 C25.8374668,5.39730135 22.7124492,2.23088456 18.730284,0.809595202 Z M7.89093737,14.1409295 C7.89093737,7.55622189 9.74809067,1.97901049 12.3016764,0.233883058 C7.80165116,1.42128936 4.37306047,7.1964018 4.37306047,14.1409295 C4.37306047,21.0854573 7.78379392,26.8605697 12.3016764,28.047976 C9.74809067,26.3028486 7.89093737,20.7436282 7.89093737,14.1409295 Z M15.7659816,0.233883058 C18.3195674,1.9970015 20.1767207,7.55622189 20.1767207,14.1409295 C20.1767207,20.7256372 18.3195674,26.3028486 15.7659816,28.047976 C20.2660069,26.8605697 23.6945976,21.0854573 23.6945976,14.1409295 C23.6945976,7.1964018 20.2660069,1.42128936 15.7659816,0.233883058 Z M14.033829,0 C12.5873923,0 11.4088143,6.33283358 11.4088143,14.1409295 C11.4088143,21.9490255 12.5873923,28.2998501 14.033829,28.2998501 C15.4802657,28.2998501 16.6588438,21.9670165 16.6588438,14.1589205 C16.6588438,6.35082459 15.4802657,0 14.033829,0 Z" fill="#F23D3D"></path>
										<path d="M149.144219,3.81409295 C148.447787,4.51574213 147.32278,4.51574213 146.626348,3.81409295 C146.28706,3.47226387 146.108488,3.02248876 146.108488,2.53673163 C146.108488,2.05097451 146.28706,1.6011994 146.626348,1.25937031 C147.32278,0.557721139 148.447787,0.557721139 149.144219,1.25937031 C149.483507,1.5832084 149.679937,2.05097451 149.662079,2.53673163 C149.662079,3.00449775 149.483507,3.47226387 149.144219,3.81409295 Z M146.787063,1.43928036 C146.501347,1.72713643 146.340632,2.12293853 146.340632,2.53673163 C146.340632,2.95052474 146.501347,3.34632684 146.787063,3.63418291 C147.376352,4.24587706 148.358501,4.24587706 148.94779,3.63418291 C149.233506,3.34632684 149.394221,2.95052474 149.394221,2.53673163 C149.394221,2.12293853 149.233506,1.72713643 148.94779,1.43928036 C148.376358,0.827586207 147.412067,0.827586207 146.787063,1.43928036 C146.80492,1.43928036 146.80492,1.43928036 146.787063,1.43928036 Z M147.840641,1.52923538 C148.019213,1.52923538 148.197785,1.54722639 148.376358,1.6011994 C148.572788,1.69115442 148.679931,1.85307346 148.679931,2.10494753 C148.697788,2.26686657 148.608502,2.4107946 148.483501,2.50074963 C148.394215,2.55472264 148.304929,2.59070465 148.197785,2.59070465 C148.340643,2.60869565 148.447787,2.68065967 148.537073,2.7886057 C148.608502,2.87856072 148.644216,2.98650675 148.644216,3.09445277 L148.644216,3.23838081 C148.644216,3.29235382 148.644216,3.32833583 148.644216,3.38230885 C148.644216,3.41829085 148.644216,3.45427286 148.662074,3.49025487 L148.679931,3.50824588 L148.358501,3.50824588 L148.358501,3.49025487 C148.358501,3.49025487 148.358501,3.47226387 148.358501,3.47226387 L148.358501,3.40029985 L148.358501,3.25637181 C148.358501,3.02248876 148.304929,2.87856072 148.179928,2.8065967 C148.054927,2.75262369 147.929927,2.73463268 147.804926,2.73463268 L147.537067,2.73463268 L147.537067,3.50824588 L147.179923,3.50824588 L147.179923,1.52923538 L147.840641,1.52923538 Z M148.215643,1.85307346 C148.090642,1.79910045 147.947784,1.76311844 147.804926,1.78110945 L147.501353,1.78110945 L147.501353,2.50074963 L147.804926,2.50074963 C147.91207,2.50074963 148.019213,2.48275862 148.126356,2.46476762 C148.251357,2.42878561 148.340643,2.28485757 148.322786,2.15892054 C148.340643,1.9970015 148.304929,1.90704648 148.215643,1.85307346 Z M45.4114936,21.9130435 C45.732924,22.5427286 46.1972123,23.1004498 46.7686441,23.5142429 C47.3579331,23.946027 48.0365083,24.2518741 48.7507981,24.4137931 C49.5186595,24.6116942 50.3043782,24.7196402 51.1079542,24.7016492 C51.6972432,24.7016492 52.2865322,24.6476762 52.8758212,24.5577211 C53.4829675,24.4677661 54.0722565,24.2878561 54.6436883,24.017991 C55.1794056,23.7661169 55.6436939,23.3883058 56.0186961,22.9385307 C56.3758409,22.4707646 56.5722706,21.8950525 56.5722706,21.1754123 C56.5722706,20.4197901 56.3222692,19.7901049 55.8401236,19.3223388 C55.3579781,18.8545727 54.7151173,18.4587706 53.9293986,18.1349325 C53.0543937,17.7931034 52.1793888,17.5232384 51.2686694,17.3073463 C50.2686637,17.0734633 49.2686581,16.8035982 48.2507953,16.5157421 C47.2150752,16.2638681 46.1972123,15.94003 45.1972067,15.5442279 C44.2507728,15.1844078 43.3400534,14.6806597 42.5364774,14.0689655 C41.7507587,13.4572714 41.107898,12.6836582 40.6436097,11.802099 C40.1614641,10.9025487 39.9114627,9.80509745 39.9114627,8.50974513 C39.9114627,7.07046477 40.2150358,5.81109445 40.8400393,4.74962519 C41.4471856,3.68815592 42.2686188,2.7886057 43.2507672,2.08695652 C44.26863,1.36731634 45.4114936,0.827586207 46.6257861,0.503748126 C47.8579359,0.16191904 49.1079429,7.10542736e-15 50.3758072,7.10542736e-15 C51.7865294,7.10542736e-15 53.2151089,0.16191904 54.5901166,0.485757121 C55.8758381,0.791604198 57.0901306,1.33133433 58.1794225,2.08695652 C59.2151426,2.82458771 60.0722903,3.77811094 60.6615793,4.91154423 C61.2687255,6.06296852 61.5901559,7.44827586 61.5901559,9.06746627 L55.6436939,9.06746627 C55.5901222,8.22188906 55.4115498,7.52023988 55.1079766,6.98050975 C54.8222608,6.45877061 54.4115442,6.0089955 53.9115414,5.68515742 C53.3936813,5.36131934 52.8043923,5.12743628 52.197246,5.01949025 C51.5008135,4.87556222 50.804381,4.82158921 50.1079486,4.82158921 C49.6079457,4.82158921 49.1079429,4.87556222 48.6257974,4.98350825 C48.1436518,5.07346327 47.6793635,5.27136432 47.2686469,5.54122939 C46.8757875,5.79310345 46.5186427,6.13493253 46.2686413,6.53073463 C46.0007826,6.92653673 45.8757819,7.43028486 45.8757819,8.02398801 C45.8757819,8.58170915 45.9829254,9.03148426 46.1972123,9.37331334 C46.4114992,9.71514243 46.8222158,10.0389805 47.4293621,10.3268366 C48.0365083,10.6146927 48.893656,10.9025487 49.9829479,11.1904048 C51.0722397,11.4782609 52.4829619,11.838081 54.2329717,12.2878561 C54.7508318,12.3958021 55.4829788,12.5757121 56.4115554,12.8635682 C57.3937038,13.1694153 58.3222804,13.6191904 59.1794281,14.1949025 C60.125862,14.8245877 60.9294379,15.6521739 61.5544414,16.6236882 C62.2151594,17.6311844 62.5544471,18.9265367 62.5544471,20.5097451 C62.5723043,21.7511244 62.3044457,22.9745127 61.8044428,24.107946 C61.30444,25.2233883 60.5365786,26.1949025 59.5901447,26.9685157 C58.6079963,27.7781109 57.3937038,28.3898051 55.9472671,28.8395802 C54.5008304,29.2893553 52.8222495,29.5052474 50.9115245,29.5052474 C49.3936588,29.5052474 47.8936504,29.3253373 46.4293565,28.9295352 C45.0543487,28.5877061 43.75077,27.976012 42.5900492,27.1304348 C41.4829001,26.3208396 40.5721807,25.2413793 39.9471772,24.017991 C39.2864592,22.7586207 38.982886,21.2653673 39.0007433,19.5202399 L44.9472053,19.5202399 C44.8936335,20.4557721 45.072206,21.2653673 45.4114936,21.9130435 Z M66.590184,5.30734633 L66.590184,0.683658171 L72.1437867,0.683658171 L72.1437867,5.30734633 L66.590184,5.30734633 Z M72.1437867,8.45577211 L72.1437867,28.8575712 L66.590184,28.8575712 L66.590184,8.45577211 L72.1437867,8.45577211 Z M82.8402753,8.45577211 L82.8402753,11.2263868 L82.9117043,11.2263868 C83.5902795,10.2188906 84.5009989,9.37331334 85.5545763,8.77961019 C86.5902964,8.20389805 87.7688744,7.91604198 89.0903104,7.91604198 C90.304603,7.89805097 91.5010383,8.14992504 92.5903301,8.67166417 C93.6439075,9.17541229 94.4474834,10.0569715 95.0010579,11.3163418 C95.6082042,10.4167916 96.4117802,9.62518741 97.4475003,8.94152924 C98.4832204,8.25787106 99.6975129,7.91604198 101.108235,7.91604198 C102.108241,7.91604198 103.108246,8.04197901 104.090395,8.31184408 C104.9654,8.54572714 105.768976,8.97751124 106.447551,9.57121439 C107.108269,10.1469265 107.608272,10.9025487 107.983274,11.838081 C108.340419,12.7736132 108.536848,13.8890555 108.536848,15.2023988 L108.536848,28.8575712 L102.983246,28.8575712 L102.983246,17.3073463 C102.983246,16.6236882 102.965388,15.976012 102.911817,15.3823088 C102.876102,14.8245877 102.733244,14.2848576 102.483243,13.7991004 C102.251099,13.3493253 101.893954,12.9715142 101.447523,12.7376312 C100.983234,12.4677661 100.376088,12.3418291 99.5903694,12.3418291 C98.8046507,12.3418291 98.1796472,12.4857571 97.6975017,12.7916042 C97.2332133,13.0794603 96.840354,13.4932534 96.5724953,13.9790105 C96.2867794,14.5007496 96.108207,15.0584708 96.0189208,15.6341829 C95.9296346,16.2458771 95.8760629,16.8755622 95.8760629,17.5052474 L95.8760629,28.8755622 L90.304603,28.8755622 L90.304603,17.4152924 C90.304603,16.8035982 90.2867457,16.2098951 90.2688885,15.6161919 C90.2510313,15.0584708 90.1438878,14.5007496 89.9296009,13.9790105 C89.7331712,13.4752624 89.3938836,13.0614693 88.9474525,12.7736132 C88.4831642,12.4677661 87.8224462,12.3238381 86.929584,12.3238381 C86.5724392,12.3418291 86.2331515,12.3958021 85.8938639,12.5037481 C85.4295756,12.6296852 85.0010018,12.8635682 84.6438569,13.1694153 C84.2331403,13.4932534 83.8938527,13.9790105 83.6081368,14.5907046 C83.3224209,15.2023988 83.1795629,16.011994 83.1795629,17.0194903 L83.1795629,28.8575712 L77.6259603,28.8575712 L77.6259603,8.45577211 L82.8402753,8.45577211 Z M118.197617,8.45577211 L118.197617,11.0644678 L118.269046,11.0644678 C118.947621,9.96701649 119.804769,9.15742129 120.858346,8.65367316 C121.929781,8.14992504 123.108359,7.89805097 124.304794,7.89805097 C125.894089,7.89805097 127.269096,8.20389805 128.41196,8.7976012 C129.536966,9.37331334 130.501257,10.2008996 131.269119,11.2083958 C132.054838,12.2518741 132.626269,13.4392804 132.9477,14.6986507 C133.322702,16.047976 133.501274,17.4512744 133.501274,18.8545727 C133.501274,20.185907 133.322702,21.5172414 132.9477,22.7946027 C132.608412,24 132.03698,25.1514243 131.286976,26.1409295 C130.536972,27.1124438 129.590538,27.904048 128.501246,28.4617691 C127.394097,29.0374813 126.090518,29.3253373 124.608367,29.3253373 C123.411932,29.3433283 122.233354,29.0734633 121.144062,28.5517241 C120.090485,28.047976 119.197622,27.2563718 118.536904,26.2848576 L118.465475,26.2848576 L118.465475,36 L112.911873,36 L112.911873,8.45577211 L118.197617,8.45577211 Z M125.411943,24.6296852 C126.019089,24.2698651 126.519092,23.7841079 126.894094,23.1904048 C127.286954,22.5607196 127.554812,21.8590705 127.69767,21.1214393 C127.858385,20.3298351 127.929814,19.5202399 127.929814,18.7106447 C127.929814,17.9010495 127.840528,17.0914543 127.679813,16.2998501 C127.519098,15.5442279 127.233382,14.8425787 126.840523,14.1949025 C126.46552,13.5832084 125.94766,13.0794603 125.340514,12.7016492 C124.733368,12.3238381 123.983364,12.125937 123.090501,12.125937 C122.179782,12.125937 121.411921,12.3238381 120.804774,12.7016492 C120.197628,13.0794603 119.697625,13.5832084 119.322623,14.1769115 C118.929764,14.8245877 118.661905,15.5262369 118.519047,16.2638681 C118.358332,17.0734633 118.286903,17.8830585 118.286903,18.7106447 C118.286903,19.5202399 118.376189,20.3298351 118.536904,21.1214393 C118.679762,21.8590705 118.965478,22.5607196 119.358338,23.1904048 C119.73334,23.7841079 120.2512,24.2698651 120.858346,24.6296852 C121.48335,25.0074963 122.233354,25.1874063 123.126216,25.1874063 C124.036935,25.1874063 124.804797,25.0074963 125.411943,24.6296852 Z M142.519182,0.683658171 L142.519182,28.8575712 L136.965579,28.8575712 L136.965579,0.683658171 L142.519182,0.683658171 Z" fill="#000"></path>
									</g>
								</g>
							</g>
						</svg>